<svg width="17" height="15" viewBox="0 0 17 15" fill="none" xmlns="http://www.w3.org/2000/svg">
<path fill-rule="evenodd" clip-rule="evenodd" d="M8.70621 13.7082C8.61332 13.8013 8.50297 13.8752 8.38148 13.9256C8.25999 13.976 8.12975 14.002 7.99821 14.002C7.86668 14.002 7.73644 13.976 7.61495 13.9256C7.49346 13.8752 7.3831 13.8013 7.29021 13.7082L1.29021 7.70817C1.19709 7.61528 1.1232 7.50492 1.07279 7.38343C1.02237 7.26194 0.996425 7.1317 0.996425 7.00017C0.996425 6.86863 1.02237 6.73839 1.07279 6.6169C1.1232 6.49541 1.19709 6.38506 1.29021 6.29217L7.29021 0.292167C7.47799 0.104393 7.73266 -0.00109577 7.99821 -0.00109577C8.26376 -0.00109577 8.51844 0.104393 8.70621 0.292167C8.89399 0.479939 8.99948 0.734615 8.99948 1.00017C8.99948 1.26572 8.89399 1.52039 8.70621 1.70817L3.41221 7.00017L8.70621 12.2922C8.79934 12.3851 8.87322 12.4954 8.92364 12.6169C8.97405 12.7384 9 12.8686 9 13.0002C9 13.1317 8.97405 13.2619 8.92364 13.3834C8.87322 13.5049 8.79934 13.6153 8.70621 13.7082Z" fill="#8A3FB7"/>
<path fill-rule="evenodd" clip-rule="evenodd" d="M17 7C17 7.26522 16.8946 7.51957 16.7071 7.70711C16.5196 7.89464 16.2652 8 16 8L3 8C2.73478 8 2.48043 7.89464 2.29289 7.70711C2.10536 7.51957 2 7.26522 2 7C2 6.73478 2.10536 6.48043 2.29289 6.29289C2.48043 6.10536 2.73478 6 3 6L16 6C16.2652 6 16.5196 6.10536 16.7071 6.29289C16.8946 6.48043 17 6.73478 17 7Z" fill="#8A3FB7"/>
</svg>
