<svg width="48" height="48" viewBox="0 0 48 48" fill="none" xmlns="http://www.w3.org/2000/svg">
<g clip-path="url(#clip0)">
<path d="M23.1233 30.7248C23.0903 30.6987 19.9342 28.2183 16.9677 28.2183C13.7785 28.2183 10.4906 29.5121 10.4576 29.5245C10.0236 29.6961 9.53194 29.6439 9.14734 29.3817C8.25523 28.7806 8.60692 27.7934 8.52928 27.121C8.52928 22.95 9.27917 20.1784 10.7542 16.223C10.886 15.8728 11.1497 15.5899 11.4904 15.4347C11.831 15.2822 12.2155 15.2671 12.5671 15.3976L23.9995 19.684L35.4318 15.3976C35.7807 15.2657 36.168 15.2794 36.5085 15.4347C36.8491 15.5899 37.1128 15.8728 37.2447 16.223C38.7197 20.1785 39.4696 22.95 39.4696 27.121C39.3927 27.7877 39.7413 28.7823 38.8516 29.3817C38.4643 29.644 37.9726 29.6975 37.5413 29.5245C37.5083 29.5121 34.2204 28.2183 31.0313 28.2183C28.5509 28.2183 25.7491 30.0257 24.8783 30.7234C24.376 31.126 23.6413 31.1369 23.1233 30.7248Z" fill="#47568C"/>
<path d="M24.8788 30.7234C25.7496 30.0257 28.5514 28.2183 31.0318 28.2183C34.2209 28.2183 37.5088 29.512 37.5418 29.5244C37.9731 29.6975 38.4648 29.6439 38.8521 29.3816C39.7442 28.7805 39.3925 27.7933 39.4702 27.121C39.4702 22.95 38.7203 20.1784 37.2453 16.223C37.1134 15.8728 36.8497 15.5898 36.5091 15.4347C36.1685 15.2795 35.7811 15.2657 35.4324 15.3975L24 19.684V31.0274C24.3137 31.0275 24.6256 30.9264 24.8788 30.7234Z" fill="#29376D"/>
<path d="M43.6896 36.6565C42.9122 36.6565 42.2832 36.0275 42.2832 35.2501V13.8165C42.2832 13.0392 42.9122 12.4102 43.6896 12.4102C44.4669 12.4102 45.096 13.0392 45.096 13.8165V35.2501C45.096 36.0275 44.4669 36.6565 43.6896 36.6565Z" fill="#704C55"/>
<path d="M23.5057 22.5037L0.909857 14.0654C-0.301785 13.6111 -0.304785 11.8867 0.909857 11.4312L23.5057 2.9929C23.8243 2.87476 24.1759 2.87476 24.4946 2.9929L47.0904 11.4312C48.2992 11.8845 48.309 13.6139 47.0848 14.0667C46.8032 14.1724 22.9997 23.0643 24.4946 22.5036C24.1845 22.6186 23.8375 22.6267 23.5057 22.5037Z" fill="#61729B"/>
<path d="M43.6898 33.8438C41.2836 33.8438 39.4707 36.8666 39.4707 40.8756V43.6884C39.4707 44.4658 40.0997 45.0948 40.8771 45.0948H46.5026C47.2799 45.0948 47.909 44.4658 47.909 43.6884V40.8756C47.909 36.8666 46.0961 33.8438 43.6898 33.8438Z" fill="#FF99BB"/>
<path d="M43.6896 36.6565C42.9122 36.6565 42.2832 36.0275 42.2832 35.2501V13.8165C42.2832 13.0392 42.9122 12.4102 43.6896 12.4102C44.4669 12.4102 45.096 13.0392 45.096 13.8165V35.2501C45.096 36.0275 44.4669 36.6565 43.6896 36.6565Z" fill="#FABE2C"/>
<path d="M43.6898 33.8438C41.2836 33.8438 39.4707 36.8666 39.4707 40.8756V43.6884C39.4707 44.4658 40.0997 45.0948 40.8771 45.0948H46.5026C47.2799 45.0948 47.909 44.4658 47.909 43.6884V40.8756C47.909 36.8666 46.0961 33.8438 43.6898 33.8438Z" fill="#FFE666"/>
<path d="M24.4944 22.5036C22.9994 23.0643 46.803 14.1723 47.0847 14.0667C48.3092 13.6137 48.2987 11.8843 47.0902 11.4312L24.4944 2.9929C24.3351 2.93383 24.1675 2.9043 24 2.9043V22.5914C24.1697 22.5912 24.3368 22.562 24.4944 22.5036Z" fill="#47568C"/>
</g>
<defs>
<clipPath id="clip0">
<rect width="48" height="48" fill="white"/>
</clipPath>
</defs>
</svg>
