<svg width="64" height="64" viewBox="0 0 64 64" fill="none" xmlns="http://www.w3.org/2000/svg">
<g clip-path="url(#clip0)">
<path d="M40.9959 41.0537C41.8016 41.8595 41.8016 43.1659 40.9959 43.9717L34.3136 50.654L34.584 50.9244C35.3312 51.6716 36.3206 52.1414 37.3755 52.2054C38.7645 52.2897 40.1291 52.8621 41.1905 53.9235C43.5526 56.2856 43.496 60.1505 41.0206 62.4406C38.7992 64.4957 35.3256 64.5236 33.0737 62.5019C31.8567 61.4092 31.2051 59.9426 31.1177 58.449C31.0562 57.3984 30.5812 56.4144 29.8371 55.6702L29.5671 55.4002L22.8849 62.0825C22.0791 62.8882 20.7727 62.8882 19.9669 62.0825L13.2847 55.4002L13.1455 55.5395C12.3982 56.2867 11.9285 57.2761 11.8645 58.331C11.7801 59.72 11.2077 61.0847 10.1464 62.1461C7.78412 64.5084 3.91899 64.4516 1.62899 61.9759C-0.426006 59.7544 -0.453631 56.2807 1.56824 54.0291C2.66087 52.8122 4.12737 52.1607 5.62087 52.0734C6.67149 52.0119 7.65537 51.537 8.39949 50.7927L8.53849 50.6537L1.85624 43.9715C1.05049 43.1657 1.05049 41.8594 1.85624 41.0535L8.39962 34.5104C8.47637 34.4336 8.47637 34.3094 8.39962 34.2326L8.39924 34.2322C7.65199 33.485 6.66262 33.0153 5.60762 32.9513C4.21862 32.8669 2.85399 32.2945 1.79262 31.2331C-0.569506 28.871 -0.512881 25.006 1.96249 22.7159C4.18387 20.6608 7.65749 20.6329 9.90937 22.6546C11.1264 23.7473 11.7779 25.2139 11.8654 26.7075C11.9269 27.7581 12.4019 28.7421 13.146 29.4863C13.2227 29.563 13.347 29.563 13.4237 29.4863L19.9671 22.9429C20.7729 22.1371 22.0792 22.1371 22.8851 22.9429L40.9959 41.0537Z" fill="#FEE133"/>
<path d="M41.0181 11.7102C39.9567 10.6489 38.5919 10.0765 37.2029 9.99212C36.1481 9.92812 35.1588 9.45837 34.4114 8.71112L34.4112 8.71087C34.3538 8.65349 34.3538 8.56049 34.4112 8.50312L40.9896 1.92474C41.7953 1.11899 43.1017 1.11899 43.9076 1.92474L50.5898 8.60699L50.8602 8.33662C51.6074 7.58937 52.0772 6.59999 52.1412 5.54512C52.2256 4.15612 52.7979 2.79149 53.8593 1.73012C56.2214 -0.632006 60.0863 -0.575381 62.3764 1.89999C64.4316 4.12137 64.4594 7.59499 62.4377 9.84687C61.3451 11.0639 59.8784 11.7155 58.3848 11.8029C57.3342 11.8644 56.3502 12.3394 55.6061 13.0835L55.3361 13.3535L62.0183 20.0357C62.8241 20.8415 62.8241 22.1479 62.0183 22.9537L55.3361 29.636L55.4753 29.7752C56.2226 30.5225 57.2119 30.9922 58.2668 31.0562C59.6558 31.1406 61.0206 31.713 62.0819 32.7744C64.4442 35.1366 64.3874 39.0017 61.9117 41.2917C59.6902 43.3467 56.2166 43.3744 53.9649 41.3525C52.7481 40.2599 52.0966 38.7934 52.0092 37.2999C51.9477 36.2492 51.4728 35.2654 50.7286 34.5212L50.5896 34.3822L43.9073 41.0645C43.1016 41.8702 41.7952 41.8702 40.9893 41.0645L34.4459 34.5211C34.3692 34.4444 34.2449 34.4444 34.1682 34.5211L34.1678 34.5215C33.4206 35.2687 32.9508 36.2581 32.8868 37.3131C32.8024 38.7021 32.2301 40.0667 31.1687 41.1281C28.8066 43.4902 24.9416 43.4336 22.6514 40.9582C20.5963 38.7369 20.5684 35.2632 22.5902 33.0114C23.6828 31.7944 25.1494 31.1429 26.6431 31.0554C27.6937 30.9939 28.6777 30.5189 29.4218 29.7747C29.4986 29.698 29.4986 29.5737 29.4218 29.497L22.8784 22.9536C22.0727 22.1479 22.0727 20.8415 22.8784 20.0356L29.4568 13.4572C29.5142 13.3999 29.6072 13.3999 29.6646 13.4572C30.4087 14.2014 30.8837 15.1852 30.9452 16.2359C31.0326 17.7294 31.6841 19.1959 32.9009 20.2885C35.1527 22.3104 38.6262 22.2827 40.8477 20.2277C43.3234 17.9376 43.3802 14.0725 41.0181 11.7102Z" fill="#8A3FB7"/>
<path d="M41.1908 53.9229C40.1295 52.8615 38.7647 52.2891 37.3757 52.2048C36.3208 52.1408 35.3315 51.671 34.5842 50.9238L34.3138 50.6534L40.9961 43.9711C41.8018 43.1654 41.8018 41.859 40.9961 41.0533L38.0678 38.125C38.8736 38.9308 38.8736 40.2371 38.0678 41.0429L19.9571 59.1537C19.1513 59.9594 17.8449 59.9594 17.0391 59.1537L19.9673 62.0819C20.7731 62.8877 22.0794 62.8877 22.8853 62.0819L29.5676 55.3997L29.8376 55.6696C30.5817 56.4138 31.0568 57.3978 31.1182 58.4484C31.2056 59.942 31.8572 61.4087 33.0742 62.5013C35.3261 64.523 38.7997 64.4952 41.0211 62.44C43.4963 60.1499 43.553 56.285 41.1908 53.9229Z" fill="#ECC32E"/>
<path d="M58.2672 31.0551C57.2123 30.9911 56.223 30.5213 55.4757 29.7741L55.3364 29.6348L62.0187 22.9526C62.8244 22.1468 62.8244 20.8404 62.0187 20.0347L59.0904 17.1064C59.8962 17.9122 59.8962 19.2186 59.0904 20.0243L40.9795 38.1351C40.1738 38.9408 38.8674 38.9408 38.0615 38.1351L40.9898 41.0633C41.7955 41.8691 43.1019 41.8691 43.9078 41.0633L50.59 34.3811L50.729 34.5201C51.4732 35.2642 51.9482 36.2481 52.0095 37.2987C52.0969 38.7922 52.7484 40.2587 53.9653 41.3513C56.217 43.3732 59.6905 43.3456 61.912 41.2906C64.3877 39.0006 64.4444 35.1353 62.0822 32.7731C61.0209 31.7118 59.6562 31.1394 58.2672 31.0551Z" fill="#7612B1"/>
</g>
<defs>
<clipPath id="clip0">
<rect width="64" height="64" fill="white"/>
</clipPath>
</defs>
</svg>
