<?xml version="1.0" encoding="UTF-8"?><!DOCTYPE svg PUBLIC "-//W3C//DTD SVG 1.1//EN" "http://www.w3.org/Graphics/SVG/1.1/DTD/svg11.dtd"><svg xmlns="http://www.w3.org/2000/svg" xmlns:xlink="http://www.w3.org/1999/xlink"><symbol id="icon-laws" viewBox="0 0 32 28">
    <path fill-rule="evenodd" clip-rule="evenodd" d="M17 1.667a1 1 0 0 0-2 0V4h-2.632c-.468 0-.926.14-1.313.404l-2.26 1.539A.333.333 0 0 1 8.607 6h-5.47a1 1 0 0 0 0 2H5.24L.75 18.24a1.016 1.016 0 0 0 .28 1.173c.107.086.215.167.413.295.248.161.602.37 1.056.577a9.218 9.218 0 0 0 3.834.827 9.226 9.226 0 0 0 3.835-.827 8.1 8.1 0 0 0 1.056-.577c.2-.13.307-.21.413-.297a1 1 0 0 0 .279-1.171L7.426 8h1.18c.469 0 .926-.141 1.313-.404l2.261-1.539A.333.333 0 0 1 12.367 6H15v19.333H9.017a1 1 0 1 0 0 2h13.966a1 1 0 0 0 0-2H17V6h2.632c.067 0 .133.02.187.057l2.262 1.539c.387.263.844.404 1.312.404h1.182l-4.491 10.24a1 1 0 0 0 .307 1.195c.016.012 0 0 .002 0 .133.1.27.191.414.274.246.15.6.342 1.053.534 1.206.504 2.5.761 3.807.757a9.791 9.791 0 0 0 3.808-.759c.45-.19.805-.382 1.053-.532.143-.084.28-.175.413-.274a1 1 0 0 0 .307-1.195L26.76 8h2.104a1 1 0 1 0 0-2h-5.47a.333.333 0 0 1-.186-.057l-2.263-1.539A2.333 2.333 0 0 0 19.633 4H17V1.667zM2.924 18.264c1.05.559 2.22.85 3.41.847a7.223 7.223 0 0 0 3.409-.847l-3.41-7.773-3.409 7.773zm19.347-.032c.109.053.232.11.366.168.707.297 1.74.6 3.03.6a7.793 7.793 0 0 0 3.396-.768l-3.396-7.743-3.396 7.743z"/>
</symbol><symbol id="icon-news" viewBox="0 0 28 22">
    <path d="M23 21.667H5a4.333 4.333 0 0 1-4.327-4.088l-.006-.246v-14A3 3 0 0 1 3.46.34l.206-.007h16.666a3 3 0 0 1 2.994 2.795l.006.205v1h1a3 3 0 0 1 2.994 2.795l.006.205v10a4.333 4.333 0 0 1-4.088 4.327l-.245.007H5h18zm-18-2h18a2.333 2.333 0 0 0 2.325-2.143l.008-.19v-10a1 1 0 0 0-.864-.991l-.136-.01h-1v10.334a1 1 0 0 1-.864.99l-.136.01a1 1 0 0 1-.99-.864l-.01-.136V3.333a1 1 0 0 0-.864-.99l-.136-.01H3.667a1 1 0 0 0-.991.864l-.01.136v14a2.333 2.333 0 0 0 2.142 2.326l.192.008h18H5zm9.328-5.334h4.008a1 1 0 0 1 .136 1.991l-.136.01h-4.008a1 1 0 0 1-.136-1.991l.136-.01h4.008-4.008zm-4.004-4.66a1 1 0 0 1 1 1v4.66a1 1 0 0 1-1 1h-4.66a1 1 0 0 1-1-1v-4.66a1 1 0 0 1 1-1h4.66zm-1 2h-2.66v2.66h2.66v-2.66zm5.004-2h4.008a1 1 0 0 1 .136 1.991l-.136.01h-4.008a1 1 0 0 1-.136-1.993l.136-.008h4.008-4.008zm-8.664-4.67h12.672a1 1 0 0 1 .136 1.992l-.136.008H5.664a1 1 0 0 1-.136-1.991l.136-.01h12.672H5.664z"/>
</symbol><symbol id="icon-rooms" viewBox="0 0 32 32">
    <path d="M20 15.996a1 1 0 1 1-2 0 1 1 0 0 1 2 0z"/>
    <path d="M15.196 4.02A1 1 0 0 0 14 5v21.994a1 1 0 0 0 1.196.98l10-2a1 1 0 0 0 .804-.98V7a1 1 0 0 0-.804-.98l-10-2zM16 25.774V6.22l8 1.6v16.354l-8 1.6z"/>
    <path d="M12 25.994v-2H8V8h4V6H7a1 1 0 0 0-1 1v17.994a1 1 0 0 0 1 1h5z"/>
</symbol><symbol id="icon-stats" viewBox="0 0 32 32">
    <path d="M10.857 21.143h-3.43v-8.57h3.43v8.57zm6.858 0h-3.43V4h3.43v17.143zm6.856 0h-3.427v-12h3.427v12z"/>
    <path fill-rule="evenodd" clip-rule="evenodd" d="M28 27.619H4v-2.667h24v2.667z"/>
</symbol></svg>