<svg width="64" height="64" viewBox="0 0 64 64" fill="none" xmlns="http://www.w3.org/2000/svg">
<g clip-path="url(#clip0)">
<path d="M30.8318 40.9671C30.7878 40.9323 26.5797 37.6251 22.6243 37.6251C18.3722 37.6251 13.9883 39.3502 13.9443 39.3667C13.3656 39.5956 12.71 39.5259 12.1972 39.1763C11.0077 38.3748 11.4767 37.0586 11.3732 36.1621C11.3732 30.6007 12.373 26.9053 14.3397 21.6314C14.5154 21.1645 14.8671 20.7872 15.3213 20.5803C15.7754 20.377 16.2881 20.3569 16.7569 20.5308L32 26.2461L47.2432 20.5308C47.7084 20.355 48.2248 20.3733 48.6788 20.5803C49.1329 20.7873 49.4845 21.1645 49.6604 21.6314C51.6271 26.9054 52.6269 30.6007 52.6269 36.1621C52.5244 37.051 52.9892 38.3771 51.8029 39.1763C51.2864 39.5261 50.6309 39.5974 50.0558 39.3667C50.0118 39.3502 45.6279 37.6251 41.3758 37.6251C38.0686 37.6251 34.3329 40.035 33.1718 40.9653C32.5021 41.5021 31.5225 41.5166 30.8318 40.9671Z" fill="#47568C"/>
<path d="M33.172 40.9653C34.3331 40.0351 38.0689 37.6251 41.376 37.6251C45.6282 37.6251 50.0121 39.3501 50.0561 39.3666C50.6311 39.5974 51.2867 39.5259 51.8031 39.1762C52.9926 38.3748 52.5237 37.0585 52.6272 36.1621C52.6272 30.6007 51.6273 26.9052 49.6607 21.6314C49.4849 21.1644 49.1332 20.7872 48.6791 20.5803C48.2249 20.3734 47.7085 20.355 47.2434 20.5308L32.0003 26.246V41.3706C32.4186 41.3707 32.8345 41.2359 33.172 40.9653Z" fill="#29376D"/>
<path d="M58.2526 48.8762C57.2161 48.8762 56.3774 48.0375 56.3774 47.001V18.4229C56.3774 17.3864 57.2161 16.5477 58.2526 16.5477C59.289 16.5477 60.1277 17.3864 60.1277 18.4229V47.001C60.1277 48.0375 59.289 48.8762 58.2526 48.8762Z" fill="#704C55"/>
<path d="M31.3408 30.0053L1.21308 18.7543C-0.402441 18.1485 -0.406442 15.8493 1.21308 15.242L31.3408 3.99094C31.7656 3.83342 32.2344 3.83342 32.6593 3.99094L62.7871 15.242C64.3989 15.8464 64.4119 18.1522 62.7797 18.756C62.4042 18.8969 30.6662 30.7528 32.6593 30.0052C32.2459 30.1586 31.7833 30.1693 31.3408 30.0053Z" fill="#61729B"/>
<path d="M58.2526 45.1259C55.0443 45.1259 52.627 49.1563 52.627 54.5017V58.2521C52.627 59.2885 53.4657 60.1272 54.5022 60.1272H62.0029C63.0394 60.1272 63.8781 59.2885 63.8781 58.2521V54.5017C63.8781 49.1563 61.4608 45.1259 58.2526 45.1259Z" fill="#FF99BB"/>
<path d="M58.2526 48.8762C57.2161 48.8762 56.3774 48.0375 56.3774 47.001V18.4229C56.3774 17.3864 57.2161 16.5477 58.2526 16.5477C59.289 16.5477 60.1277 17.3864 60.1277 18.4229V47.001C60.1277 48.0375 59.289 48.8762 58.2526 48.8762Z" fill="#FABE2C"/>
<path d="M58.2526 45.1259C55.0443 45.1259 52.627 49.1563 52.627 54.5017V58.2521C52.627 59.2885 53.4657 60.1272 54.5022 60.1272H62.0029C63.0394 60.1272 63.8781 59.2885 63.8781 58.2521V54.5017C63.8781 49.1563 61.4608 45.1259 58.2526 45.1259Z" fill="#FFE666"/>
<path d="M32.6593 30.0053C30.666 30.7529 62.4042 18.8969 62.7797 18.7562C64.4124 18.1521 64.3984 15.8463 62.7871 15.2421L32.6593 3.99106C32.4469 3.9123 32.2235 3.87292 32.0001 3.87292V30.1223C32.2264 30.1221 32.4492 30.0832 32.6593 30.0053Z" fill="#47568C"/>
</g>
<defs>
<clipPath id="clip0">
<rect width="64" height="64" fill="white"/>
</clipPath>
</defs>
</svg>
